<?xml version="1.0" standalone="no"?><!DOCTYPE svg PUBLIC "-//W3C//DTD SVG 1.1//EN" "http://www.w3.org/Graphics/SVG/1.1/DTD/svg11.dtd"><svg t="1752134348680" class="icon" viewBox="0 0 1024 1024" version="1.1" xmlns="http://www.w3.org/2000/svg" p-id="7878" xmlns:xlink="http://www.w3.org/1999/xlink" width="200" height="200"><path d="M617.472 648.192c-20.48-9.216-44.032 1.024-52.224 20.48-9.216 20.48 1.024 44.032 20.48 52.224 48.128 20.48 77.824 49.152 77.824 73.728 0 45.056-101.376 108.544-265.216 108.544S133.12 840.704 133.12 795.648c0-23.552 25.6-49.152 69.632-69.632 19.456-9.216 28.672-32.768 18.432-53.248-9.216-19.456-32.768-28.672-53.248-18.432-73.728 34.816-113.664 84.992-113.664 141.312 0 107.52 148.48 188.416 345.088 188.416s345.088-80.896 345.088-188.416c-1.024-58.368-47.104-112.64-126.976-147.456z" fill="#333C4F" p-id="7879"></path><path d="M968.704 200.704c-4.096-13.312-14.336-22.528-26.624-26.624L483.328 41.984c-11.264-3.072-22.528-2.048-32.768 5.12-9.216 6.144-16.384 17.408-17.408 28.672L417.792 204.8l-23.552 201.728-7.168 62.464-34.816 303.104c-2.048 21.504 13.312 41.984 34.816 44.032h4.096c19.456 0 36.864-15.36 39.936-34.816L460.8 522.24l379.904 83.968c3.072 1.024 6.144 1.024 8.192 1.024 10.24 0 21.504-4.096 28.672-12.288 9.216-10.24 13.312-24.576 9.216-37.888L838.656 378.88l119.808-140.288c11.264-11.264 14.336-25.6 10.24-37.888zM766.976 342.016c-8.192 10.24-11.264 23.552-8.192 35.84l35.84 135.168-323.584-71.68 35.84-310.272L860.16 232.448l-93.184 109.568z" fill="#333C4F" p-id="7880"></path></svg>